<svg xmlns="http://www.w3.org/2000/svg" viewBox="0 0 360 280"><g fill="none" fill-rule="evenodd"><path fill="#E52020" d="M261.34 242.706l-145.968 2.548c-6.598.115-12.093-5.19-12.208-11.79l-4.302-131.97c-.116-6.6 7.19-12.093 13.788-12.208l145.968-2.548c6.6-.115 9.093 5.19 9.208 11.788l5.304 131.972c.115 6.6-5.19 12.093-11.79 12.208"/><path fill="#F33" d="M255.99 236.992H110c-6.6 0-12-5.4-12-12V93c0-6.6 5.4-12 12-12h145.99c6.6 0 12 5.4 12 12v131.992c0 6.6-5.4 12-12 12"/><path fill="#E00000" d="M267.99 117.523H98V93c0-6.6 5.4-12 12-12h145.99c6.6 0 12 5.4 12 12v24.523z"/><path fill="#9E0000" d="M141.016 96.914c0 6.627-5.373 12-12 12s-12-5.373-12-12 5.373-12 12-12 12 5.373 12 12"/><path fill="#000" d="M129.33 101a7 7 0 0 1-7-7V72c0-3.85 3.148-7 7-7 3.85 0 7 3.15 7 7v22a7 7 0 0 1-7 7"/><path fill="#9E0000" d="M251.683 96.914c0 6.627-5.373 12-12 12-6.628 0-12-5.373-12-12s5.372-12 12-12c6.627 0 12 5.373 12 12"/><path fill="#000" d="M239.995 101a7 7 0 0 1-7-7V72c0-3.85 3.15-7 7-7s7 3.15 7 7v22a7 7 0 0 1-7 7"/><path fill="#FFF" d="M154.738 205.34v-46.253l-11.743 9.072-7.738-10.586 20.718-15.21h13.617v62.977zm28.454 0v-12.43l24.55-22.2c1.54-1.48 2.786-2.99 3.736-4.53.948-1.537 1.424-3.254 1.424-5.148 0-2.25-.712-4.07-2.136-5.46-1.423-1.392-3.32-2.088-5.692-2.088-2.49 0-4.524.876-6.094 2.624-1.572 1.75-2.506 4.047-2.802 6.894l-14.32-1.957c.355-3.203 1.23-6.055 2.624-8.557 1.392-2.5 3.157-4.632 5.29-6.394 2.137-1.76 4.582-3.105 7.34-4.03 2.76-.926 5.678-1.39 8.762-1.39 2.905 0 5.722.387 8.45 1.157 2.727.77 5.16 1.958 7.294 3.56 2.135 1.6 3.84 3.617 5.114 6.048 1.275 2.432 1.914 5.28 1.914 8.54 0 2.254-.298 4.284-.89 6.092a20.292 20.292 0 0 1-2.446 5.026 28.97 28.97 0 0 1-3.557 4.314 130.25 130.25 0 0 1-4.138 3.958l-14.587 12.987h25.706v12.987h-45.542z"/></g></svg>