<svg xmlns="http://www.w3.org/2000/svg" width="360" height="280" viewBox="0 0 360 280">
    <g fill="none" fill-rule="evenodd">
        <path fill="#E52020" d="M261.341 242.706l-145.969 2.548c-6.598.115-12.093-5.19-12.208-11.789l-4.302-131.972c-.116-6.599 7.189-12.092 13.788-12.207l145.968-2.548c6.6-.115 9.093 5.19 9.208 11.788l5.304 131.972c.115 6.6-5.19 12.093-11.789 12.208"/>
        <path fill="#F33" d="M255.991 236.992h-145.99c-6.602 0-12-5.4-12-12V93c0-6.6 5.398-12 12-12h145.99c6.6 0 12 5.4 12 12v131.992c0 6.6-5.4 12-12 12"/>
        <path fill="#E00000" d="M267.991 117.523H98.001V93c0-6.6 5.398-12 12-12h145.99c6.6 0 12 5.4 12 12v24.523z"/>
        <path fill="#9E0000" d="M141.016 96.914c0 6.627-5.373 12-12 12s-12-5.373-12-12 5.373-12 12-12 12 5.373 12 12"/>
        <path fill="#000" d="M129.33 101a7 7 0 0 1-7-7V72c0-3.85 3.148-7 7-7 3.85 0 7 3.15 7 7v22a7 7 0 0 1-7 7"/>
        <path fill="#9E0000" d="M251.683 96.914c0 6.627-5.373 12-12 12-6.628 0-12-5.373-12-12s5.372-12 12-12c6.627 0 12 5.373 12 12"/>
        <path fill="#000" d="M239.995 101a7 7 0 0 1-7-7V72c0-3.85 3.15-7 7-7 3.851 0 7 3.15 7 7v22a7 7 0 0 1-7 7"/>
        <path fill="#FFF" d="M154.738 205.34v-46.253l-11.743 9.072-7.738-10.585 20.718-15.21h13.617v62.977zM183.192 205.34V192.91l24.55-22.2c1.54-1.48 2.786-2.99 3.736-4.53.948-1.537 1.424-3.254 1.424-5.148 0-2.25-.712-4.07-2.136-5.461-1.423-1.391-3.321-2.087-5.692-2.087-2.491 0-4.524.876-6.094 2.624-1.572 1.75-2.506 4.047-2.802 6.894l-14.32-1.957c.355-3.203 1.23-6.055 2.624-8.557 1.392-2.501 3.157-4.632 5.29-6.394 2.137-1.761 4.582-3.105 7.34-4.031 2.759-.925 5.678-1.388 8.762-1.388 2.905 0 5.722.386 8.45 1.156 2.727.77 5.16 1.957 7.294 3.558 2.135 1.6 3.84 3.618 5.114 6.049 1.275 2.432 1.914 5.279 1.914 8.539 0 2.255-.298 4.285-.891 6.093a20.292 20.292 0 0 1-2.445 5.026 28.969 28.969 0 0 1-3.557 4.314 130.25 130.25 0 0 1-4.138 3.958l-14.587 12.987h25.706v12.987h-45.542z"/>
    </g>
</svg>
