<svg xmlns="http://www.w3.org/2000/svg" viewBox="0 0 360 280"><g fill="none" fill-rule="evenodd"><path fill="#1668A5" d="M145 264.58h58.82V63.35H145"/><path fill="#0E547F" d="M202 264.58h33.6V63.35H202"/><path fill="#116193" d="M151.67 63.33h43.42V52h-43.45"/><path fill="#0B4B6B" d="M195.06 63.33h32.8V52h-32.8"/><path fill="#2280BA" d="M223.9 105.58v159h-32.73V112.25h-5.84v-6.67"/><path fill="#1668A5" d="M223.33 105.58v159h32.73V112.25h5.84v-6.67"/><path fill="#2280BA" d="M71.17 264.58h54v-119h-54"/><path fill="#135E8C" d="M125 264.58h41.42v-119H125"/><path fill="#FFF64A" d="M79 166.26h39v-10H79m0 25.5h39v-10H79"/><path fill="#135E8C" d="M59 266.3h242.42v-8.8H59"/><path fill="#135E8C" d="M281.33 262.17h3.34v-77.33h-3.34"/><path fill="#FFCE00" d="M287.75 188.76c0 2.62-2.13 4.75-4.75 4.75s-4.75-2.1-4.75-4.72c0-2.63 2.13-4.75 4.75-4.75s4.75 2.13 4.75 4.76"/><path fill="#135E8C" d="M283 181.5c-3.7 0-6.75 2.6-7.33 6h14.66c-.58-3.4-3.63-6-7.33-6"/><path d="M0 0h360v280H0z"/></g></svg>
