<svg xmlns="http://www.w3.org/2000/svg" width="243" height="215" viewBox="0 0 243 215">
    <g fill="none" fill-rule="evenodd">
        <path fill="#1668A5" d="M86 212.583h58.816V11.349H86z"/>
        <path fill="#0E547F" d="M143 212.583h33.609V11.349H143z"/>
        <path fill="#116193" d="M92.667 11.333h43.425V0H92.667z"/>
        <path fill="#0B4B6B" d="M136.064 11.333h32.809V0h-32.809z"/>
        <path fill="#2280BA" d="M164.9 53.583v159h-32.73V60.253h-5.84v-6.67z"/>
        <path fill="#1668A5" d="M164.33 53.583v159h32.73V60.253h5.84v-6.67z"/>
        <path fill="#2280BA" d="M12.167 212.583h54v-119h-54z"/>
        <path fill="#135E8C" d="M66 212.583h41.418v-119H66z"/>
        <path fill="#FFF64A" d="M20 114.256h39v-10H20zM20 129.756h39v-10H20z"/>
        <path fill="#135E8C" d="M0 214.3h242.417v-8.794H0z"/>
        <path fill="#135E8C" d="M222.333 210.173h3.334v-77.334h-3.334z"/>
        <path fill="#FFCE00" d="M228.75 136.756a4.75 4.75 0 1 1-9.5-.001 4.75 4.75 0 0 1 9.5 0"/>
        <path fill="#135E8C" d="M224 129.506c-3.696 0-6.754 2.599-7.333 6h14.666c-.579-3.401-3.637-6-7.333-6"/>
        <path d="M-59-52h360v280H-59z"/>
    </g>
</svg>
