<svg xmlns="http://www.w3.org/2000/svg" xmlns:xlink="http://www.w3.org/1999/xlink" viewBox="0 0 360 280">
    <defs>
        <path id="a" d="M3.306.672a8.086 8.086 0 0 1-2.756.929l4.852 2.438a8.077 8.077 0 0 0 2.755-.928v-.344L3.989.672h-.683z"/>
        <path id="c" d="M.305.673C.413.614.519.553.625.489l4.851 2.438a8.884 8.884 0 0 1-.32.184H.555l-.25-.126V.673z"/>
        <path id="e" d="M5.853 2.255L9.402 4.04c-1.281.18-2.487.014-3.55-.433v-1.35zM.61.988H.61c1.153.579 2.499.815 3.94.613l1.303.654L.61.988z"/>
        <path id="g" d="M2.273 1.552c.72.139 1.484.16 2.277.049l4.852 2.438v.072h-7.13V1.823L.61.988a6.39 6.39 0 0 0 1.663.564h7.129V4.04L2.273 1.552z"/>
        <path id="i" d="M6.409 3.284c-.3.234-.61.45-.933.643L.625 1.489.99.845h5.419v2.439z"/>
        <path id="k" d="M8.914 13.168c.29-.93.454-1.907.466-2.902.039-3.202-1.505-5.777-3.835-6.947L.694.88c2.329 1.171 3.873 3.745 3.835 6.947l-3.024 5.34h7.41z"/>
        <path id="m" d="M7.882 2.483L4.694.88.754.267V.196h7.128v2.287zM.753.267l4.852 2.439a6.932 6.932 0 0 1 2.276.048L.753.267z"/>
        <path id="o" d="M5.545 3.319L.694.88.303.82V2.05l1.302.655c1.44-.202 2.787.033 3.94.613z"/>
        <path id="q" d="M1.241.14C.951 1.068.787 2.045.775 3.04.738 6.243 2.282 8.817 4.611 9.988l4.851 2.438L5.627 5.48c.022-1.918.609-3.77 1.584-5.34H1.24z"/>
        <path id="s" d="M.998 1.195A8.082 8.082 0 0 1 3.75.267h.004l4.851 2.439a8.08 8.08 0 0 0-2.756.928H1V1.195z"/>
        <path id="u" d="M.698 3.717C3.276 2.306 6.06 1.341 8.958.934c4.269-.6 8.253.084 11.68 1.777v.809c-2.156-.417-4.448-.481-6.829-.147-2.898.407-5.68 1.371-8.258 2.782H.698V3.717z"/>
        <path id="w" d="M.79.081C2.54.42 4.202.99 5.75 1.767l3.684 1.852v.05C6.807 2.563 3.887 2.031.786 2.184V.081H.79z"/>
        <path id="y" d="M.583.23c.396.166.785.345 1.167.537l4.851 2.439a19.164 19.164 0 0 0-6.019-1.86V.228h.001z"/>
        <path id="A" d="M117.502.633v40.281h-117V.633h117z"/>
    </defs>
    <g fill="none" fill-rule="evenodd">
        <path d="M0 0h360v280H0z"/>
        <path fill="#AEC647" d="M138.865 66L71 90.152V247.14l67.865-24.152zM274.594 66l-67.865 24.152V247.14l67.864-24.152z"/>
        <path fill="#CCE053" d="M138.865 66v156.989l67.864 24.152V90.15z"/>
        <g>
            <path fill="#8B1C1C" d="M117.933 198.222l-4.852-2.439 5.832-29.024 4.852 2.44z"/>
            <g transform="translate(117 148.141)">
                <mask id="b" fill="#fff">
                    <use xlink:href="#a"/>
                </mask>
                <path fill="#A82222" d="M5.402 4.04L.55 1.6A8.093 8.093 0 0 0 3.305.672l4.852 2.44a8.092 8.092 0 0 1-2.755.927" mask="url(#b)"/>
            </g>
            <g transform="translate(120 148.141)">
                <mask id="d" fill="#fff">
                    <use xlink:href="#c"/>
                </mask>
                <path fill="#A32121" d="M5.157 3.11L.305.674a9.1 9.1 0 0 0 1.252-.828l4.852 2.439a9.154 9.154 0 0 1-1.252.827" mask="url(#d)"/>
            </g>
            <g transform="translate(113 148.141)">
                <mask id="f" fill="#fff">
                    <use xlink:href="#e"/>
                </mask>
                <path fill="#9E2020" d="M5.463 3.426L.61.988c.128.063.259.124.39.18l4.853 2.438a5.992 5.992 0 0 1-.39-.18" mask="url(#f)"/>
            </g>
            <path fill="#A32121" d="M118.852 151.748l-4.852-2.44c.406.17.831.3 1.273.386l4.851 2.439a6.478 6.478 0 0 1-1.272-.385"/>
            <g transform="translate(113 148.141)">
                <mask id="h" fill="#fff">
                    <use xlink:href="#g"/>
                </mask>
                <path fill="#A82222" d="M7.125 3.991L2.273 1.552c.72.138 1.485.16 2.278.048L9.4 4.04a6.919 6.919 0 0 1-2.276-.049" mask="url(#h)"/>
            </g>
            <g transform="translate(120 147.141)">
                <mask id="j" fill="#fff">
                    <use xlink:href="#i"/>
                </mask>
                <path fill="#A32121" d="M5.157 4.11L.305 1.674A9.1 9.1 0 0 0 1.557.845l4.852 2.439a9.154 9.154 0 0 1-1.252.827" mask="url(#j)"/>
            </g>
            <path fill="#9E2020" d="M126.409 150.425l-4.852-2.439c.325-.254.635-.53.928-.826l4.852 2.44a9.907 9.907 0 0 1-.928.825"/>
            <path fill="#991F1F" d="M127.337 149.6l-4.853-2.439c.274-.275.532-.567.774-.873l4.85 2.438c-.242.307-.5.6-.772.873"/>
            <path fill="#941E1E" d="M128.109 148.727l-4.852-2.438c.24-.304.463-.622.67-.953l4.852 2.439c-.207.33-.431.649-.67.952"/>
            <path fill="#8F1D1D" d="M128.779 147.775l-4.852-2.44c.22-.35.42-.715.599-1.092l4.852 2.438c-.18.378-.38.743-.6 1.094"/>
            <path fill="#8A1C1C" d="M129.377 146.681l-4.852-2.438c.21-.443.39-.902.538-1.374l4.851 2.44c-.146.471-.326.93-.536 1.372"/>
            <g transform="translate(121 132.141)">
                <mask id="l" fill="#fff">
                    <use xlink:href="#k"/>
                </mask>
                <path fill="#851B1B" d="M8.915 13.168l-4.852-2.44a10.09 10.09 0 0 0 .466-2.901C4.567 4.625 3.023 2.05.694.88l4.852 2.439c2.329 1.17 3.873 3.745 3.835 6.947a10.124 10.124 0 0 1-.466 2.902" mask="url(#l)"/>
            </g>
            <g>
                <g transform="translate(117 132.141)">
                    <mask id="n" fill="#fff">
                        <use xlink:href="#m"/>
                    </mask>
                    <path fill="#A8A8A8" d="M5.605 2.706L.753.267a6.951 6.951 0 0 1 2.278.048l4.851 2.44a6.917 6.917 0 0 0-2.277-.049" mask="url(#n)"/>
                </g>
                <path fill="#A3A3A3" d="M124.882 134.895l-4.852-2.438c.443.084.87.214 1.273.384l4.851 2.439c-.404-.17-.83-.3-1.272-.385"/>
                <g transform="translate(121 132.141)">
                    <mask id="p" fill="#fff">
                        <use xlink:href="#o"/>
                    </mask>
                    <path fill="#9E9E9E" d="M5.155 3.139L.303.7c.133.055.263.115.39.179l4.853 2.439a6.602 6.602 0 0 0-.391-.18" mask="url(#p)"/>
                </g>
            </g>
            <g>
                <g transform="translate(109 139.141)">
                    <mask id="r" fill="#fff">
                        <use xlink:href="#q"/>
                    </mask>
                    <path fill="#858585" d="M9.463 12.426L4.61 9.988C2.28 8.818.737 6.243.773 3.041.786 2.046.95 1.068 1.24.14l4.853 2.438c-.29.93-.455 1.907-.466 2.902-.037 3.202 1.506 5.777 3.836 6.947" mask="url(#r)"/>
                </g>
                <path fill="#8A8A8A" d="M115.092 141.719l-4.852-2.438c.148-.472.33-.931.54-1.374l4.85 2.439c-.21.443-.39.902-.538 1.373"/>
                <path fill="#8F8F8F" d="M115.63 140.346l-4.852-2.439c.18-.377.38-.742.598-1.093l4.852 2.438c-.219.351-.419.717-.598 1.094"/>
                <path fill="#949494" d="M116.228 139.252l-4.852-2.438c.207-.33.431-.649.671-.953l4.852 2.44c-.24.303-.464.62-.67.951"/>
                <path fill="#999" d="M116.899 138.3l-4.852-2.438c.242-.306.499-.598.772-.872l4.851 2.438c-.272.275-.53.566-.771.873"/>
                <path fill="#9E9E9E" d="M117.67 137.428l-4.851-2.438c.293-.297.603-.573.927-.827l4.853 2.44c-.325.253-.635.53-.929.825"/>
                <path fill="#A3A3A3" d="M118.598 136.602l-4.852-2.438a9.285 9.285 0 0 1 1.252-.828l4.852 2.439a9.154 9.154 0 0 0-1.252.827"/>
                <g transform="translate(114 132.141)">
                    <mask id="t" fill="#fff">
                        <use xlink:href="#s"/>
                    </mask>
                    <path fill="#A8A8A8" d="M5.85 3.634L.998 1.195A8.092 8.092 0 0 1 3.753.267l4.852 2.44a8.077 8.077 0 0 0-2.755.927" mask="url(#t)"/>
                </g>
            </g>
            <path fill="#DF2D2D" d="M122.402 152.18c4.352-.61 7.923-4.986 7.979-9.773.056-4.789-3.423-8.172-7.776-7.56-4.351.611-7.922 4.986-7.978 9.773-.057 4.79 3.423 8.172 7.775 7.56m23.68-13.57c.043.46.06.985.053 1.582-.331 28.165-26.808 56.536-28.202 58.03l5.832-29.024c-.52.116-1.04.232-1.567.307-13.047 1.833-23.486-8.317-23.317-22.672.168-14.363 10.88-27.486 23.928-29.319 12.568-1.767 22.678 7.591 23.274 21.095"/>
            <path fill="#DFDFDF" d="M122.605 134.847c4.353-.612 7.832 2.771 7.775 7.56-.055 4.787-3.627 9.162-7.978 9.773-4.352.612-7.832-2.77-7.776-7.56.057-4.787 3.627-9.162 7.98-9.773"/>
            <g>
                <path fill="#851B1B" d="M110.386 167.667l-4.852-2.438c-6.985-3.512-11.619-11.232-11.505-20.834a30.338 30.338 0 0 1 1.398-8.706l4.852 2.438a30.351 30.351 0 0 0-1.399 8.707c-.113 9.602 4.521 17.322 11.506 20.833"/>
                <path fill="#8A1C1C" d="M100.279 138.127l-4.852-2.438a31.94 31.94 0 0 1 1.613-4.12l4.85 2.44a31.776 31.776 0 0 0-1.611 4.118"/>
                <path fill="#8F1D1D" d="M101.891 134.009l-4.852-2.44a32.497 32.497 0 0 1 1.795-3.28l4.852 2.438a32.315 32.315 0 0 0-1.795 3.282"/>
                <path fill="#941E1E" d="M103.686 130.727l-4.852-2.438a31.962 31.962 0 0 1 2.011-2.856l4.852 2.439a31.743 31.743 0 0 0-2.01 2.855"/>
                <path fill="#991F1F" d="M105.697 127.872l-4.852-2.44c.727-.918 1.5-1.793 2.317-2.616l4.85 2.438a31.447 31.447 0 0 0-2.315 2.618"/>
                <path fill="#9E2020" d="M108.013 125.254l-4.852-2.438c.88-.89 1.81-1.717 2.784-2.48l4.851 2.44a29.709 29.709 0 0 0-2.783 2.478"/>
                <path fill="#A32121" d="M110.797 122.776l-4.852-2.438a27.587 27.587 0 0 1 3.754-2.48l4.852 2.439a27.55 27.55 0 0 0-3.754 2.479"/>
                <g transform="translate(109 114.141)">
                    <mask id="v" fill="#fff">
                        <use xlink:href="#u"/>
                    </mask>
                    <path fill="#A82222" d="M5.55 6.155L.698 3.717C3.278 2.305 6.06 1.341 8.958.934c2.38-.335 4.672-.27 6.828.146l4.852 2.44c-2.156-.417-4.448-.482-6.829-.147-2.899.407-5.68 1.371-8.259 2.782" mask="url(#v)"/>
                </g>
                <g transform="translate(124 115.141)">
                    <mask id="x" fill="#fff">
                        <use xlink:href="#w"/>
                    </mask>
                    <path fill="#A32121" d="M5.638 2.52L.786.08c1.321.254 2.59.641 3.796 1.148l4.852 2.44a19.191 19.191 0 0 0-3.796-1.15" mask="url(#x)"/>
                </g>
                <g transform="translate(128 116.141)">
                    <mask id="z" fill="#fff">
                        <use xlink:href="#y"/>
                    </mask>
                    <path fill="#9E2020" d="M5.434 2.668L.582.23c.396.168.786.347 1.167.538l4.852 2.44a18.682 18.682 0 0 0-1.167-.538" mask="url(#z)"/>
                </g>
            </g>
            <g transform="translate(217 112.141)">
                <mask id="B" fill="#fff">
                    <use xlink:href="#A"/>
                </mask>
                <path fill="#9ED7E8" d="M.502 40.914h117s-1-20-20.5-11c2.5-11.5-7.11-31.913-27.5-29-14 2-18.5 17-18.5 17s-4.938-5-13-5c-7.688 0-15.5 9-14.5 15.5-13.5-4-23 12.5-23 12.5" mask="url(#B)"/>
            </g>
        </g>
    </g>
</svg>
